<svg height="464pt" viewBox="-104 0 464 464" width="464pt" xmlns="http://www.w3.org/2000/svg"><path d="m24 416h208c13.253906 0 24 10.746094 24 24s-10.746094 24-24 24h-208c-13.253906 0-24-10.746094-24-24s10.746094-24 24-24zm0 0" fill="#3086cd"/><path d="m214.59375 367.0625c-29.109375-19.410156-46.589844-52.078125-46.59375-87.0625v-40h-80v40c-.003906 34.984375-17.484375 67.652344-46.59375 87.0625l-1.40625.9375c-13.253906 0-24 10.746094-24 24s10.746094 24 24 24h176c13.253906 0 24-10.746094 24-24s-10.746094-24-24-24zm0 0" fill="#348fd9"/><path d="m216 368-1.40625-.9375c-27.375-18.320312-44.511719-48.472656-46.242188-81.367188-26.324218 52.652344-65.882812 97.554688-114.800781 130.304688h162.449219c13.253906 0 24-10.746094 24-24s-10.746094-24-24-24zm0 0" fill="#3086cd"/><path d="m80 192h96c13.253906 0 24 10.746094 24 24s-10.746094 24-24 24h-96c-13.253906 0-24-10.746094-24-24s10.746094-24 24-24zm0 0" fill="#348fd9"/><path d="m176 192h-32c13.253906 0 24 10.746094 24 24s-10.746094 24-24 24h32c13.253906 0 24-10.746094 24-24s-10.746094-24-24-24zm0 0" fill="#3086cd"/><path d="m168 192h-80l-24-64h128zm0 0" fill="#348fd9"/><path d="m176 24-32 8 8-32h-48l8 32-32-8v48l32-8-8 32h48l-8-32 32 8zm0 0" fill="#ffb531"/><path d="m88 96h80v32h-80zm0 0" fill="#3086cd"/><path d="m216 376h-136c-4.417969 0-8-3.582031-8-8s3.582031-8 8-8h136c4.417969 0 8 3.582031 8 8s-3.582031 8-8 8zm0 0" fill="#62a9e6"/><path d="m88 240h80v16h-80zm0 0" fill="#3086cd"/><path d="m176 36.800781-67.296875 40.375-4.703125 18.824219h48l-8-32 32 8zm0 0" fill="#ffa912"/><path d="m192 128h-28.160156l-21.0625 64h25.222656zm0 0" fill="#3086cd"/></svg>