<svg id="Capa_1" enable-background="new 0 0 512 512" height="512" viewBox="0 0 512 512" width="512" xmlns="http://www.w3.org/2000/svg"><g><path d="m65.592 419.979v3.294l22.414 22.707 4.014.427 28.909-28.908 2.727-4.883 20.339-66.854v-4.186z" fill="#ffd500"/><path d="m133.982 378.676 10.013-32.914v-4.186l-78.403 78.403v3.294l11.819 11.973z" fill="#fbc700"/><path d="m341.669 13.524s40.106 90.272-36.315 166.694l-29.065 29.064-30.546 30.546h5.026l66.982-17.779 3.916-5.288 10.115-10.115c76.421-76.421 166.694-36.315 166.694-36.315-6.879-6.878-149.929-149.928-156.807-156.807z" fill="#ffd500"/><g><path d="m303.183 209.283 29.065-29.064c46.147-46.148 49.8-97.337 45.456-130.659-19.433-19.433-33.956-33.956-36.034-36.034 0 0 40.106 90.272-36.315 166.694l-29.065 29.064-30.546 30.546h5.026l29.771-7.902z" fill="#fbc700"/></g><g><path d="m364.963 359.048-101.748 101.748c-32.869 32.869-86.351 32.869-119.22 0s-32.869-86.351 0-119.22l101.748-101.748c32.869-32.869 86.351-32.869 119.22 0s32.869 86.351 0 119.22zm-194.539 8.956c-18.297 18.297-18.297 48.068 0 66.364 18.297 18.297 48.068 18.296 66.364 0l101.747-101.748c18.297-18.297 18.297-48.068 0-66.364-18.297-18.297-48.067-18.296-66.364 0z" fill="#ffe559"/></g><g fill="#ffd500"><path d="m261.439 434.368 101.748-101.748c18.296-18.296 18.297-48.067 0-66.364-12.307-12.307-29.802-16.322-45.508-12.073 7.644 2.068 14.866 6.083 20.856 12.073 18.296 18.296 18.296 48.067 0 66.364l-101.748 101.748c-5.99 5.99-13.212 10.005-20.856 12.073 15.706 4.249 33.201.234 45.508-12.073z"/><path d="m168.647 460.796c-32.869-32.869-32.869-86.351 0-119.22l101.748-101.748c13.297-13.298 29.969-21.211 47.285-23.749-25.485-3.736-52.365 4.177-71.936 23.749l-101.749 101.748c-32.869 32.869-32.869 86.351 0 119.22 19.572 19.572 46.451 27.484 71.936 23.748-17.315-2.538-33.987-10.45-47.284-23.748z"/></g><g><path d="m499.006 181.626-168.632-168.632c-2.973-2.972-2.973-7.792 0-10.764 2.972-2.972 7.792-2.972 10.764 0l168.632 168.632c2.973 2.972 2.973 7.792 0 10.764-2.972 2.973-7.791 2.972-10.764 0z" fill="#ffe559"/></g><path d="m57.054 481.373 34.966-34.966-26.428-26.428-34.966 34.966c.613.479 1.21.987 1.774 1.55l23.105 23.105c.563.563 1.071 1.16 1.549 1.773z" fill="#b5dcff"/><path d="m79.136 433.522-13.543-13.543-34.966 34.966c.613.479 1.211.987 1.774 1.55l11.881 11.881z" fill="#8bcaff"/><g><path d="m243.28 427.875-114.835-114.835c-2.973-2.972-2.973-7.792 0-10.764 2.973-2.973 7.792-2.973 10.764 0l114.835 114.835c2.973 2.972 2.973 7.792 0 10.764-2.973 2.973-7.793 2.973-10.764 0z" fill="#eab900"/></g><g><path d="m282.279 388.876-114.835-114.835c-2.973-2.972-2.973-7.792 0-10.764 2.972-2.972 7.792-2.972 10.764 0l114.835 114.835c2.973 2.972 2.973 7.792 0 10.764-2.972 2.973-7.791 2.972-10.764 0z" fill="#eab900"/></g><g><path d="m321.278 349.877-114.835-114.835c-2.973-2.972-2.973-7.792 0-10.764 2.972-2.972 7.792-2.972 10.764 0l114.835 114.835c2.973 2.972 2.973 7.792 0 10.764-2.973 2.973-7.792 2.973-10.764 0z" fill="#eab900"/></g><g><path d="m120.747 319.118c-2.973-2.972-2.973-7.791 0-10.764l13.775-13.776c2.972-2.972 7.792-2.973 10.764 0 2.973 2.972 2.973 7.791 0 10.764l-13.775 13.776c-2.972 2.973-7.792 2.972-10.764 0z" fill="#ffd500"/></g><g><path d="m159.746 280.118c-2.973-2.973-2.973-7.792 0-10.764l13.776-13.775c2.973-2.973 7.792-2.973 10.764 0 2.973 2.973 2.973 7.792 0 10.764l-13.776 13.775c-2.973 2.973-7.793 2.973-10.764 0z" fill="#ffd500"/></g><g><path d="m198.745 241.12c-2.973-2.972-2.973-7.791 0-10.764l13.775-13.776c2.972-2.972 7.792-2.973 10.764 0 2.973 2.972 2.973 7.791 0 10.764l-13.774 13.776c-2.973 2.973-7.793 2.972-10.765 0z" fill="#ffd500"/></g><path d="m5.797 455.109c-7.729 7.729-7.729 20.26 0 27.989l23.105 23.105c7.729 7.729 20.26 7.729 27.989 0 7.729-7.729 7.729-20.26 0-27.989l-23.105-23.105c-7.729-7.73-20.26-7.729-27.989 0z" fill="#dbedff"/><path d="m43.786 492.138-23.105-23.105c-5.218-5.218-6.898-12.621-5.072-19.261-3.595.774-7.019 2.543-9.813 5.337-7.729 7.729-7.729 20.26 0 27.99l23.105 23.105c7.729 7.729 20.26 7.729 27.989 0 2.511-2.511 4.193-5.533 5.072-8.729-6.35 1.366-13.24-.402-18.176-5.337z" fill="#b5dcff"/></g></svg>